<svg width="504" height="551" viewBox="0 0 504 551" fill="none" xmlns="http://www.w3.org/2000/svg">
<path d="M50.1052 103.894L50.1041 103.895C20.465 120.981 2.20117 152.626 2.20117 186.843V364.768C2.20117 398.984 20.464 430.585 50.1049 447.717C50.1052 447.717 50.1054 447.717 50.1056 447.717L204.168 536.657L204.169 536.657C233.809 553.787 270.291 553.787 299.931 536.657L299.931 536.657L453.995 447.717L453.995 447.716C483.634 430.63 501.898 398.985 501.898 364.768V186.843C501.898 152.627 483.635 121.025 453.994 103.894C453.994 103.894 453.994 103.894 453.994 103.894L299.932 14.9099L50.1052 103.894ZM50.1052 103.894L204.168 14.9095M50.1052 103.894L204.168 14.9095M204.168 14.9095C204.168 14.9094 204.168 14.9094 204.168 14.9093M204.168 14.9095L204.168 14.9093M204.168 14.9093C233.763 -2.17644 270.29 -2.17715 299.931 14.9093H204.168Z" stroke="#FF007F" stroke-width="3"/>
</svg>
